<mxfile host="Electron" agent="Mozilla/5.0 (Windows NT 10.0; Win64; x64) AppleWebKit/537.36 (KHTML, like Gecko) draw.io/27.0.2 Chrome/134.0.6998.205 Electron/35.3.0 Safari/537.36" version="27.0.2">
  <diagram name="Page-1" id="cqVtKn7EBuxshjFLG5_r">
    <mxGraphModel dx="1410" dy="856" grid="1" gridSize="10" guides="1" tooltips="1" connect="1" arrows="1" fold="1" page="1" pageScale="1" pageWidth="827" pageHeight="1169" math="0" shadow="0">
      <root>
        <mxCell id="0" />
        <mxCell id="1" parent="0" />
        <mxCell id="WPy_mO1lc_CJaPaNIeYg-1" value="&lt;h1&gt;醫師&lt;/h1&gt;" style="rounded=0;whiteSpace=wrap;html=1;fillColor=#dae8fc;strokeColor=#6c8ebf;" parent="1" vertex="1">
          <mxGeometry x="160" y="290" width="120" height="60" as="geometry" />
        </mxCell>
        <mxCell id="WPy_mO1lc_CJaPaNIeYg-2" value="&lt;h1&gt;檢驗&lt;/h1&gt;" style="rhombus;whiteSpace=wrap;html=1;fillColor=#fff2cc;strokeColor=#d6b656;" parent="1" vertex="1">
          <mxGeometry x="380" y="285" width="130" height="70" as="geometry" />
        </mxCell>
        <mxCell id="WPy_mO1lc_CJaPaNIeYg-4" value="&lt;h1&gt;住院病人&lt;/h1&gt;" style="rounded=0;whiteSpace=wrap;html=1;fillColor=#dae8fc;strokeColor=#6c8ebf;" parent="1" vertex="1">
          <mxGeometry x="610" y="290" width="120" height="60" as="geometry" />
        </mxCell>
        <mxCell id="WPy_mO1lc_CJaPaNIeYg-5" value="" style="endArrow=none;html=1;rounded=0;entryX=1;entryY=0.5;entryDx=0;entryDy=0;exitX=0;exitY=0.5;exitDx=0;exitDy=0;" parent="1" source="WPy_mO1lc_CJaPaNIeYg-4" target="WPy_mO1lc_CJaPaNIeYg-2" edge="1">
          <mxGeometry relative="1" as="geometry">
            <mxPoint x="430" y="520" as="sourcePoint" />
            <mxPoint x="590" y="520" as="targetPoint" />
          </mxGeometry>
        </mxCell>
        <mxCell id="WPy_mO1lc_CJaPaNIeYg-6" value="&lt;h1&gt;N&lt;/h1&gt;" style="resizable=0;html=1;whiteSpace=wrap;align=right;verticalAlign=bottom;" parent="WPy_mO1lc_CJaPaNIeYg-5" connectable="0" vertex="1">
          <mxGeometry x="1" relative="1" as="geometry">
            <mxPoint x="20" y="15" as="offset" />
          </mxGeometry>
        </mxCell>
        <mxCell id="WPy_mO1lc_CJaPaNIeYg-7" value="" style="endArrow=none;html=1;rounded=0;exitX=1;exitY=0.5;exitDx=0;exitDy=0;entryX=0;entryY=0.5;entryDx=0;entryDy=0;" parent="1" source="WPy_mO1lc_CJaPaNIeYg-1" target="WPy_mO1lc_CJaPaNIeYg-2" edge="1">
          <mxGeometry relative="1" as="geometry">
            <mxPoint x="430" y="520" as="sourcePoint" />
            <mxPoint x="590" y="520" as="targetPoint" />
          </mxGeometry>
        </mxCell>
        <mxCell id="WPy_mO1lc_CJaPaNIeYg-8" value="&lt;h1&gt;&lt;font style=&quot;font-size: 22px;&quot;&gt;M&lt;/font&gt;&lt;/h1&gt;" style="resizable=0;html=1;whiteSpace=wrap;align=right;verticalAlign=bottom;" parent="WPy_mO1lc_CJaPaNIeYg-7" connectable="0" vertex="1">
          <mxGeometry x="1" relative="1" as="geometry">
            <mxPoint x="-10" y="15" as="offset" />
          </mxGeometry>
        </mxCell>
        <mxCell id="WPy_mO1lc_CJaPaNIeYg-9" value="&lt;h2&gt;&lt;u&gt;代號&lt;/u&gt;&lt;/h2&gt;" style="ellipse;whiteSpace=wrap;html=1;" parent="1" vertex="1">
          <mxGeometry x="195" y="410" width="120" height="50" as="geometry" />
        </mxCell>
        <mxCell id="WPy_mO1lc_CJaPaNIeYg-10" value="" style="endArrow=none;html=1;rounded=0;entryX=0.5;entryY=0;entryDx=0;entryDy=0;exitX=0.5;exitY=1;exitDx=0;exitDy=0;" parent="1" source="WPy_mO1lc_CJaPaNIeYg-1" target="WPy_mO1lc_CJaPaNIeYg-9" edge="1">
          <mxGeometry relative="1" as="geometry">
            <mxPoint x="280" y="290" as="sourcePoint" />
            <mxPoint x="740" y="520" as="targetPoint" />
          </mxGeometry>
        </mxCell>
        <mxCell id="WPy_mO1lc_CJaPaNIeYg-11" value="&lt;h2&gt;&lt;span style=&quot;font-weight: normal;&quot;&gt;姓名&lt;/span&gt;&lt;/h2&gt;" style="ellipse;whiteSpace=wrap;html=1;align=center;" parent="1" vertex="1">
          <mxGeometry x="60" y="410" width="110" height="50" as="geometry" />
        </mxCell>
        <mxCell id="WPy_mO1lc_CJaPaNIeYg-17" value="" style="endArrow=none;html=1;rounded=0;entryX=0.25;entryY=1;entryDx=0;entryDy=0;" parent="1" source="WPy_mO1lc_CJaPaNIeYg-11" target="WPy_mO1lc_CJaPaNIeYg-1" edge="1">
          <mxGeometry relative="1" as="geometry">
            <mxPoint x="430" y="510" as="sourcePoint" />
            <mxPoint x="590" y="510" as="targetPoint" />
          </mxGeometry>
        </mxCell>
        <mxCell id="WPy_mO1lc_CJaPaNIeYg-21" value="&lt;h2&gt;&lt;u&gt;病人代號&lt;/u&gt;&lt;/h2&gt;" style="ellipse;whiteSpace=wrap;html=1;" parent="1" vertex="1">
          <mxGeometry x="550" y="130" width="120" height="50" as="geometry" />
        </mxCell>
        <mxCell id="WPy_mO1lc_CJaPaNIeYg-22" value="&lt;h2&gt;&lt;span style=&quot;font-weight: normal;&quot;&gt;姓名&lt;/span&gt;&lt;/h2&gt;" style="ellipse;whiteSpace=wrap;html=1;align=center;" parent="1" vertex="1">
          <mxGeometry x="685" y="150" width="110" height="50" as="geometry" />
        </mxCell>
        <mxCell id="WPy_mO1lc_CJaPaNIeYg-24" value="" style="endArrow=none;html=1;rounded=0;exitX=0.25;exitY=0;exitDx=0;exitDy=0;" parent="1" source="WPy_mO1lc_CJaPaNIeYg-4" target="WPy_mO1lc_CJaPaNIeYg-21" edge="1">
          <mxGeometry relative="1" as="geometry">
            <mxPoint x="650" y="290" as="sourcePoint" />
            <mxPoint x="590" y="510" as="targetPoint" />
          </mxGeometry>
        </mxCell>
        <mxCell id="WPy_mO1lc_CJaPaNIeYg-25" value="" style="endArrow=none;html=1;rounded=0;entryX=0.5;entryY=1;entryDx=0;entryDy=0;exitX=0.5;exitY=0;exitDx=0;exitDy=0;" parent="1" source="WPy_mO1lc_CJaPaNIeYg-4" target="WPy_mO1lc_CJaPaNIeYg-22" edge="1">
          <mxGeometry relative="1" as="geometry">
            <mxPoint x="720" y="290" as="sourcePoint" />
            <mxPoint x="960" y="320" as="targetPoint" />
          </mxGeometry>
        </mxCell>
        <mxCell id="WPy_mO1lc_CJaPaNIeYg-26" value="" style="endArrow=none;html=1;rounded=0;entryX=0.723;entryY=0.93;entryDx=0;entryDy=0;exitX=0;exitY=0;exitDx=0;exitDy=0;entryPerimeter=0;" parent="1" source="WPy_mO1lc_CJaPaNIeYg-4" target="WPy_mO1lc_CJaPaNIeYg-31" edge="1">
          <mxGeometry relative="1" as="geometry">
            <mxPoint x="740" y="360" as="sourcePoint" />
            <mxPoint x="697.5" y="422" as="targetPoint" />
          </mxGeometry>
        </mxCell>
        <mxCell id="WPy_mO1lc_CJaPaNIeYg-31" value="&lt;h2&gt;緊急連絡人&lt;/h2&gt;" style="ellipse;shape=doubleEllipse;margin=3;whiteSpace=wrap;html=1;align=center;" parent="1" vertex="1">
          <mxGeometry x="430" y="170" width="110" height="50" as="geometry" />
        </mxCell>
        <mxCell id="WPy_mO1lc_CJaPaNIeYg-32" value="&lt;h2&gt;&lt;span style=&quot;font-weight: normal;&quot;&gt;姓名&lt;/span&gt;&lt;/h2&gt;" style="ellipse;whiteSpace=wrap;html=1;align=center;" parent="1" vertex="1">
          <mxGeometry x="330" y="60" width="120" height="50" as="geometry" />
        </mxCell>
        <mxCell id="WPy_mO1lc_CJaPaNIeYg-33" value="&lt;h2&gt;&lt;span style=&quot;font-weight: normal;&quot;&gt;電話&lt;/span&gt;&lt;/h2&gt;" style="ellipse;whiteSpace=wrap;html=1;align=center;" parent="1" vertex="1">
          <mxGeometry x="480" y="60" width="120" height="50" as="geometry" />
        </mxCell>
        <mxCell id="WPy_mO1lc_CJaPaNIeYg-34" value="" style="endArrow=none;html=1;rounded=0;exitX=0.689;exitY=0.957;exitDx=0;exitDy=0;exitPerimeter=0;entryX=0.218;entryY=0.084;entryDx=0;entryDy=0;entryPerimeter=0;" parent="1" source="WPy_mO1lc_CJaPaNIeYg-32" target="WPy_mO1lc_CJaPaNIeYg-31" edge="1">
          <mxGeometry relative="1" as="geometry">
            <mxPoint x="440" y="490" as="sourcePoint" />
            <mxPoint x="400" y="180" as="targetPoint" />
          </mxGeometry>
        </mxCell>
        <mxCell id="WPy_mO1lc_CJaPaNIeYg-35" value="" style="endArrow=none;html=1;rounded=0;entryX=0.716;entryY=0.048;entryDx=0;entryDy=0;entryPerimeter=0;exitX=0.5;exitY=1;exitDx=0;exitDy=0;" parent="1" source="WPy_mO1lc_CJaPaNIeYg-33" target="WPy_mO1lc_CJaPaNIeYg-31" edge="1">
          <mxGeometry relative="1" as="geometry">
            <mxPoint x="445" y="150" as="sourcePoint" />
            <mxPoint x="698" y="480" as="targetPoint" />
          </mxGeometry>
        </mxCell>
        <mxCell id="WPy_mO1lc_CJaPaNIeYg-36" value="&lt;h1&gt;檢驗項目&lt;/h1&gt;" style="rounded=0;whiteSpace=wrap;html=1;fillColor=#dae8fc;strokeColor=#6c8ebf;" parent="1" vertex="1">
          <mxGeometry x="385" y="460" width="120" height="60" as="geometry" />
        </mxCell>
        <mxCell id="WPy_mO1lc_CJaPaNIeYg-38" value="" style="endArrow=none;html=1;rounded=0;entryX=0.5;entryY=1;entryDx=0;entryDy=0;exitX=0.5;exitY=0;exitDx=0;exitDy=0;" parent="1" source="WPy_mO1lc_CJaPaNIeYg-36" target="WPy_mO1lc_CJaPaNIeYg-2" edge="1">
          <mxGeometry relative="1" as="geometry">
            <mxPoint x="270" y="414.5" as="sourcePoint" />
            <mxPoint x="430" y="414.5" as="targetPoint" />
          </mxGeometry>
        </mxCell>
        <mxCell id="WPy_mO1lc_CJaPaNIeYg-39" value="&lt;h1&gt;O&lt;/h1&gt;" style="resizable=0;html=1;whiteSpace=wrap;align=right;verticalAlign=bottom;" parent="WPy_mO1lc_CJaPaNIeYg-38" connectable="0" vertex="1">
          <mxGeometry x="1" relative="1" as="geometry">
            <mxPoint x="25" y="55" as="offset" />
          </mxGeometry>
        </mxCell>
        <mxCell id="WPy_mO1lc_CJaPaNIeYg-40" value="&lt;h2&gt;&lt;u&gt;項目代號&lt;/u&gt;&lt;/h2&gt;" style="ellipse;whiteSpace=wrap;html=1;" parent="1" vertex="1">
          <mxGeometry x="430" y="600" width="120" height="50" as="geometry" />
        </mxCell>
        <mxCell id="WPy_mO1lc_CJaPaNIeYg-41" value="" style="endArrow=none;html=1;rounded=0;entryX=0.5;entryY=1;entryDx=0;entryDy=0;exitX=0.371;exitY=0.04;exitDx=0;exitDy=0;exitPerimeter=0;" parent="1" source="WPy_mO1lc_CJaPaNIeYg-40" target="WPy_mO1lc_CJaPaNIeYg-36" edge="1">
          <mxGeometry relative="1" as="geometry">
            <mxPoint x="200" y="600" as="sourcePoint" />
            <mxPoint x="330" y="590" as="targetPoint" />
          </mxGeometry>
        </mxCell>
        <mxCell id="WPy_mO1lc_CJaPaNIeYg-43" value="&lt;h2&gt;&lt;span style=&quot;font-weight: normal;&quot;&gt;名稱&lt;/span&gt;&lt;/h2&gt;" style="ellipse;whiteSpace=wrap;html=1;align=center;" parent="1" vertex="1">
          <mxGeometry x="300" y="600" width="110" height="50" as="geometry" />
        </mxCell>
        <mxCell id="WPy_mO1lc_CJaPaNIeYg-45" value="" style="endArrow=none;html=1;rounded=0;exitX=1;exitY=0;exitDx=0;exitDy=0;entryX=0.308;entryY=1;entryDx=0;entryDy=0;entryPerimeter=0;" parent="1" source="WPy_mO1lc_CJaPaNIeYg-43" target="WPy_mO1lc_CJaPaNIeYg-36" edge="1">
          <mxGeometry relative="1" as="geometry">
            <mxPoint x="100" y="520" as="sourcePoint" />
            <mxPoint x="260" y="520" as="targetPoint" />
          </mxGeometry>
        </mxCell>
        <mxCell id="WPy_mO1lc_CJaPaNIeYg-46" value="&lt;h1&gt;病房&lt;/h1&gt;" style="rounded=0;whiteSpace=wrap;html=1;fillColor=#dae8fc;strokeColor=#6c8ebf;" parent="1" vertex="1">
          <mxGeometry x="610" y="550" width="120" height="60" as="geometry" />
        </mxCell>
        <mxCell id="WPy_mO1lc_CJaPaNIeYg-47" value="&lt;h2&gt;&lt;u&gt;房號&lt;/u&gt;&lt;/h2&gt;" style="ellipse;whiteSpace=wrap;html=1;" parent="1" vertex="1">
          <mxGeometry x="680" y="690" width="120" height="50" as="geometry" />
        </mxCell>
        <mxCell id="WPy_mO1lc_CJaPaNIeYg-48" value="&lt;h2&gt;&lt;span style=&quot;font-weight: normal;&quot;&gt;等級&lt;/span&gt;&lt;/h2&gt;" style="ellipse;whiteSpace=wrap;html=1;align=center;" parent="1" vertex="1">
          <mxGeometry x="535" y="690" width="110" height="50" as="geometry" />
        </mxCell>
        <mxCell id="WPy_mO1lc_CJaPaNIeYg-49" value="" style="endArrow=none;html=1;rounded=0;exitX=0.608;exitY=0.01;exitDx=0;exitDy=0;exitPerimeter=0;" parent="1" source="WPy_mO1lc_CJaPaNIeYg-48" edge="1">
          <mxGeometry relative="1" as="geometry">
            <mxPoint x="550" y="601" as="sourcePoint" />
            <mxPoint x="660" y="610" as="targetPoint" />
          </mxGeometry>
        </mxCell>
        <mxCell id="WPy_mO1lc_CJaPaNIeYg-50" value="" style="endArrow=none;html=1;rounded=0;entryX=0.638;entryY=1;entryDx=0;entryDy=0;exitX=0.413;exitY=0.012;exitDx=0;exitDy=0;exitPerimeter=0;entryPerimeter=0;" parent="1" source="WPy_mO1lc_CJaPaNIeYg-47" target="WPy_mO1lc_CJaPaNIeYg-46" edge="1">
          <mxGeometry relative="1" as="geometry">
            <mxPoint x="548" y="624" as="sourcePoint" />
            <mxPoint x="634" y="550" as="targetPoint" />
          </mxGeometry>
        </mxCell>
        <mxCell id="WPy_mO1lc_CJaPaNIeYg-51" value="&lt;h1&gt;容納&lt;/h1&gt;" style="rhombus;whiteSpace=wrap;html=1;fillColor=#fff2cc;strokeColor=#d6b656;" parent="1" vertex="1">
          <mxGeometry x="610" y="420" width="120" height="70" as="geometry" />
        </mxCell>
        <mxCell id="WPy_mO1lc_CJaPaNIeYg-52" value="" style="endArrow=none;html=1;rounded=0;entryX=0.5;entryY=0;entryDx=0;entryDy=0;exitX=0.5;exitY=1;exitDx=0;exitDy=0;" parent="1" source="WPy_mO1lc_CJaPaNIeYg-4" target="WPy_mO1lc_CJaPaNIeYg-51" edge="1">
          <mxGeometry relative="1" as="geometry">
            <mxPoint x="620" y="330" as="sourcePoint" />
            <mxPoint x="520" y="330" as="targetPoint" />
          </mxGeometry>
        </mxCell>
        <mxCell id="WPy_mO1lc_CJaPaNIeYg-53" value="&lt;h1&gt;N&lt;/h1&gt;" style="resizable=0;html=1;whiteSpace=wrap;align=right;verticalAlign=bottom;" parent="WPy_mO1lc_CJaPaNIeYg-52" connectable="0" vertex="1">
          <mxGeometry x="1" relative="1" as="geometry">
            <mxPoint x="20" y="15" as="offset" />
          </mxGeometry>
        </mxCell>
        <mxCell id="WPy_mO1lc_CJaPaNIeYg-54" value="" style="endArrow=none;html=1;rounded=0;entryX=0.5;entryY=1;entryDx=0;entryDy=0;exitX=0.5;exitY=0;exitDx=0;exitDy=0;" parent="1" source="WPy_mO1lc_CJaPaNIeYg-46" target="WPy_mO1lc_CJaPaNIeYg-51" edge="1">
          <mxGeometry relative="1" as="geometry">
            <mxPoint x="680" y="360" as="sourcePoint" />
            <mxPoint x="680" y="430" as="targetPoint" />
          </mxGeometry>
        </mxCell>
        <mxCell id="WPy_mO1lc_CJaPaNIeYg-55" value="&lt;h1&gt;1&lt;/h1&gt;" style="resizable=0;html=1;whiteSpace=wrap;align=right;verticalAlign=bottom;" parent="WPy_mO1lc_CJaPaNIeYg-54" connectable="0" vertex="1">
          <mxGeometry x="1" relative="1" as="geometry">
            <mxPoint x="20" y="50" as="offset" />
          </mxGeometry>
        </mxCell>
        <mxCell id="WPy_mO1lc_CJaPaNIeYg-57" value="&lt;h1&gt;指導&lt;/h1&gt;" style="shape=rhombus;perimeter=rhombusPerimeter;whiteSpace=wrap;html=1;align=center;fillColor=#fff2cc;strokeColor=#d6b656;" parent="1" vertex="1">
          <mxGeometry x="30" y="150" width="120" height="60" as="geometry" />
        </mxCell>
        <mxCell id="WPy_mO1lc_CJaPaNIeYg-59" value="" style="endArrow=none;html=1;rounded=0;entryX=0.591;entryY=-0.013;entryDx=0;entryDy=0;entryPerimeter=0;" parent="1" target="WPy_mO1lc_CJaPaNIeYg-1" edge="1">
          <mxGeometry relative="1" as="geometry">
            <mxPoint x="230" y="180" as="sourcePoint" />
            <mxPoint x="310" y="240" as="targetPoint" />
          </mxGeometry>
        </mxCell>
        <mxCell id="WPy_mO1lc_CJaPaNIeYg-60" value="" style="endArrow=none;html=1;rounded=0;entryX=1;entryY=0.5;entryDx=0;entryDy=0;" parent="1" target="WPy_mO1lc_CJaPaNIeYg-57" edge="1">
          <mxGeometry relative="1" as="geometry">
            <mxPoint x="230" y="180" as="sourcePoint" />
            <mxPoint x="320" y="150" as="targetPoint" />
          </mxGeometry>
        </mxCell>
        <mxCell id="WPy_mO1lc_CJaPaNIeYg-61" value="&lt;h1&gt;1&lt;/h1&gt;" style="resizable=0;html=1;whiteSpace=wrap;align=right;verticalAlign=bottom;" parent="WPy_mO1lc_CJaPaNIeYg-60" connectable="0" vertex="1">
          <mxGeometry x="1" relative="1" as="geometry">
            <mxPoint x="20" y="20" as="offset" />
          </mxGeometry>
        </mxCell>
        <mxCell id="WPy_mO1lc_CJaPaNIeYg-62" value="" style="endArrow=none;html=1;rounded=0;" parent="1" edge="1">
          <mxGeometry relative="1" as="geometry">
            <mxPoint x="90" y="310" as="sourcePoint" />
            <mxPoint x="160" y="310" as="targetPoint" />
            <Array as="points">
              <mxPoint x="120" y="310" />
            </Array>
          </mxGeometry>
        </mxCell>
        <mxCell id="WPy_mO1lc_CJaPaNIeYg-63" value="" style="endArrow=none;html=1;rounded=0;entryX=0.5;entryY=1;entryDx=0;entryDy=0;" parent="1" target="WPy_mO1lc_CJaPaNIeYg-57" edge="1">
          <mxGeometry relative="1" as="geometry">
            <mxPoint x="90" y="310" as="sourcePoint" />
            <mxPoint x="74.40999999999997" y="290" as="targetPoint" />
          </mxGeometry>
        </mxCell>
        <mxCell id="WPy_mO1lc_CJaPaNIeYg-64" value="&lt;h1&gt;N&lt;/h1&gt;" style="resizable=0;html=1;whiteSpace=wrap;align=right;verticalAlign=bottom;" parent="WPy_mO1lc_CJaPaNIeYg-63" connectable="0" vertex="1">
          <mxGeometry x="1" relative="1" as="geometry">
            <mxPoint y="50" as="offset" />
          </mxGeometry>
        </mxCell>
        <mxCell id="Pt_ognKEOlxeWulRLj8X-1" value="&lt;h2&gt;&lt;span style=&quot;font-weight: normal;&quot;&gt;診療日期&lt;/span&gt;&lt;/h2&gt;" style="ellipse;whiteSpace=wrap;html=1;align=center;" vertex="1" parent="1">
          <mxGeometry x="265" y="200" width="120" height="50" as="geometry" />
        </mxCell>
        <mxCell id="Pt_ognKEOlxeWulRLj8X-2" value="" style="endArrow=none;html=1;rounded=0;exitX=0.758;exitY=0.9;exitDx=0;exitDy=0;exitPerimeter=0;entryX=0;entryY=0;entryDx=0;entryDy=0;" edge="1" parent="1" source="Pt_ognKEOlxeWulRLj8X-1" target="WPy_mO1lc_CJaPaNIeYg-2">
          <mxGeometry relative="1" as="geometry">
            <mxPoint x="363" y="148" as="sourcePoint" />
            <mxPoint x="414" y="194" as="targetPoint" />
          </mxGeometry>
        </mxCell>
      </root>
    </mxGraphModel>
  </diagram>
</mxfile>
